<svg xmlns="http://www.w3.org/2000/svg" viewBox="0 0 30 20"><path fill="#002395" d="M0 0h30v20H0z"/><path fill="#fecb00" d="M11 0h15L11 20z"/><g fill="#fff"><path d="m2 1 1 .7 1-.7-.4 1.2 1 .8H3.4L3 4l-.4-1.1H1.4l1-.8zM5 4l1 .7 1-.7-.4 1.2 1 .8H6.4L6 7l-.4-1.1H4.4l1-.8zM8 7l1 .7 1-.7-.4 1.2 1 .8H9.4L9 10l-.4-1.1H7.4l1-.8zM11 10l1 .7 1-.7-.4 1.2 1 .8h-1.2L12 13l-.4-1.1h-1.2l1-.8zM14 13l1 .7 1-.7-.4 1.2 1 .8h-1.2L15 16l-.4-1.1h-1.2l1-.8zM17 16l1 .7 1-.7-.4 1.2 1 .8h-1.2L18 19l-.4-1.1h-1.2l1-.8z"/></g></svg>
