<svg xmlns="http://www.w3.org/2000/svg" viewBox="0 0 30 20"><path fill="#00247d" d="M0 0h30v20H0z"/><path fill="#fff" d="M0 0h14v9H0z"/><path fill="#cf142b" d="M0 0h14v9H0z" opacity=".18"/><path fill="#00247d" d="M0 0h14v9H0z"/><path stroke="#fff" stroke-width="1.8" d="m0 0 14 9M14 0 0 9M7 0v9M0 4.5h14"/><path stroke="#cf142b" stroke-width=".9" d="m0 0 14 9M14 0 0 9M7 0v9M0 4.5h14"/><g fill="#cf142b" stroke="#fff" stroke-width=".5"><path d="m22 5 .5 1.2 1.3.1-1 .8.4 1.2-1.2-.7-1.2.7.4-1.2-1-.8 1.3-.1zM25 10l.5 1.2 1.3.1-1 .8.4 1.2-1.2-.7-1.2.7.4-1.2-1-.8 1.3-.1zM20 13l.5 1.2 1.3.1-1 .8.4 1.2-1.2-.7-1.2.7.4-1.2-1-.8 1.3-.1zM18 8l.4 1 .9.1-.7.6.3.9-.9-.5-.9.5.3-.9-.7-.6.9-.1z"/></g></svg>
