<svg xmlns="http://www.w3.org/2000/svg" viewBox="0 0 30 20"><path fill="#b22234" d="M0 0h30v20H0z"/><path fill="#fff" d="M0 1.54h30v1.54H0zm0 3.08h30v1.54H0zm0 3.08h30v1.54H0zm0 3.08h30v1.54H0zm0 3.08h30v1.54H0zm0 3.08h30v1.54H0z"/><path fill="#3c3b6e" d="M0 0h13v10.8H0z"/><g fill="#fff"><circle cx="2" cy="2" r=".5"/><circle cx="5" cy="2" r=".5"/><circle cx="8" cy="2" r=".5"/><circle cx="11" cy="2" r=".5"/><circle cx="3.5" cy="5" r=".5"/><circle cx="6.5" cy="5" r=".5"/><circle cx="9.5" cy="5" r=".5"/><circle cx="2" cy="8" r=".5"/><circle cx="5" cy="8" r=".5"/><circle cx="8" cy="8" r=".5"/><circle cx="11" cy="8" r=".5"/></g></svg>
